<?xml version="1.0" standalone="no"?>
<!DOCTYPE svg PUBLIC "-//W3C//DTD SVG 1.1//EN" "http://www.w3.org/Graphics/SVG/1.1/DTD/svg11.dtd">
<svg xmlns="http://www.w3.org/2000/svg">
<defs >
<font id="Anybody" horiz-adv-x="190" ><font-face
    font-family="Anybody UltraCondensed Thin Medium"
    units-per-em="2000"
    panose-1="0 0 0 0 0 0 0 0 0 0"
    ascent="1590"
    descent="-480"
    alphabetic="0" />
<glyph unicode=" " horiz-adv-x="503" />
<glyph unicode="!" horiz-adv-x="433" d="M58 343H292L492 1350H214L58 343ZM-17 -11H224L261 201H21L-17 -11Z" />
<glyph unicode="&quot;" horiz-adv-x="457" d="M212 897H358L437 1350H291L212 897ZM211 897H352L432 1350H290L211 897Z" />
<glyph unicode="#" horiz-adv-x="1332" d="M642 0H828L1259 1350H1073L642 0ZM-10 345H1178L1203 489H15L-10 345ZM59 0H244L675 1350H489L59 0ZM112 857H1300L1326 1002H138L112 857Z" />
<glyph unicode="$" horiz-adv-x="1138" d="M588 1225L739 1224L767 1381H615L588 1225ZM365 -30H517L545 123H392L365 -30ZM489 79Q711 79 867 162T1047 414Q1071 588 974 659T672 769Q514 798 427 832T352 959Q362 1033 434 1078T634 1123Q767 1123 835 1061T902
879L1128 953Q1127 1132 1006 1207T660 1283Q439 1283 288 1203T114 960Q90 788 185 714T471 605Q638 569 728 535T805 402Q796 331 722 286T515 240Q376 240 305 300T237 496L10 421Q15 230 142 155T489 79Z" />
<glyph unicode="%" horiz-adv-x="1327" d="M-34 0H138L1384 1348H1214L-34 0ZM397 825Q557 825 644 878T754 1054L768 1136Q790 1260 718 1312T485 1365Q325 1365 237 1312T127 1136L113 1054Q91 932 164 879T397 825ZM410 923Q325 923 291 952T269 1053L284 1138Q297
1211 341 1239T470 1267Q554 1267 589 1239T612 1138L597 1053Q584 981 540 952T410 923ZM892 -7Q1052 -7 1139 46T1248 222L1263 304Q1285 427 1213 480T980 533Q820 533 732 480T622 304L608 222Q586 100 659 47T892 -7ZM904 91Q820 91 786 119T764 220L779 306Q792
378 836 406T965 435Q1049 435 1084 407T1107 306L1091 220Q1079 148 1035 120T904 91Z" />
<glyph unicode="&amp;" horiz-adv-x="1499" d="M507 -12Q826 -12 1094 155T1425 678H1207Q1157 394 959 276T544 157Q360 157 285 207T226 360Q241 462 353 529T644 666Q819 742 961 825T1126 1050Q1149 1207 1045 1284T754 1362Q582 1362 447 1285T289 1048Q270
925 337 827T468 658L1050 0H1328L662 774Q593 845 551 908T520 1048Q533 1128 590 1165T731 1202Q818 1202 863 1164T896 1049Q884 973 792 915T550 803Q396 737 199 631T-18 344Q-38 166 93 77T507 -12Z" />
<glyph unicode="&apos;" horiz-adv-x="289" d="M119 917H295L371 1350H195L119 917Z" />
<glyph unicode="(" horiz-adv-x="635" d="M198 -443L393 -337Q371 -311 342 -263T286 -142T242 29T224 255T253 539Q281 696 325 824T422 1051T527 1225T627 1348T704 1423L545 1529Q514 1505 464 1454T353 1321T233 1128T121 869T37 539Q5 356 5 211T25 -46T77
-237T142 -367T198 -443Z" />
<glyph unicode=")" horiz-adv-x="632" d="M70 -443Q101 -418 151 -368T262 -238T382 -47T493 210T577 539Q609 722 609 868T590 1127T538 1321T473 1453T417 1529L223 1423Q244 1397 273 1349T329 1226T373 1053T390 825T361 539Q334 383 290 256T193 31T87 -141T-12
-262T-88 -337L70 -443Z" />
<glyph unicode="*" horiz-adv-x="538" d="M208 1202L620 1429L590 1498L178 1271L208 1202ZM537 1202L589 1268L260 1498L208 1432L537 1202ZM326 1167H407L472 1533H391L326 1167Z" />
<glyph unicode="+" horiz-adv-x="551" d="M138 208H297L331 406H496L523 554H359L393 752H234L200 554H34L6 406H173L138 208Z" />
<glyph unicode="," horiz-adv-x="532" d="M-109 -236H34L292 126H58L-109 -236Z" />
<glyph unicode="-" horiz-adv-x="862" d="M17 398H719L748 559H46L17 398Z" />
<glyph unicode="." horiz-adv-x="409" d="M8 203L-28 0H200L236 203H8Z" />
<glyph unicode="/" horiz-adv-x="776" d="M-90 0H116L892 1348H685L-90 0Z" />
<glyph unicode="0" horiz-adv-x="1089" d="M412 -14Q651 -14 781 74T946 350L1061 997Q1095 1184 996 1272T658 1361Q419 1361 289 1273T124 997L8 350Q-26 163 73 75T412 -14ZM442 154Q321 154 278 204T253 361L364 986Q383 1092 444 1142T628 1192Q748 1192
791 1142T816 986L705 361Q685 256 623 205T442 154Z" />
<glyph unicode="1" horiz-adv-x="1021" d="M-33 0H838L868 168H556L764 1352H563L182 1258L150 1078L488 1155L315 168H-3L-33 0Z" />
<glyph unicode="2" horiz-adv-x="1106" d="M-41 0H907L937 168H244Q256 237 344 313T619 493Q807 602 936 718T1086 1006Q1103 1146 1030 1253T678 1361Q395 1361 273 1230T112 884H355Q386 1064 461 1128T654 1192Q761 1192 809 1149T842 1004Q824 889 746 811T463
624Q240 511 124 394T-15 144L-41 0Z" />
<glyph unicode="3" horiz-adv-x="1131" d="M447 -14Q744 -14 860 93T1000 385Q1018 520 961 596T749 677Q905 682 995 761T1105 977Q1128 1150 1055 1255T687 1361Q402 1361 281 1238T116 872H357Q394 1081 467 1138T661 1195Q783 1195 832 1143T857 940Q842 839
769 796T529 749L502 597Q670 594 724 555T764 412Q740 256 670 204T476 151Q352 151 301 206T283 452H42Q2 222 81 104T447 -14Z" />
<glyph unicode="4" horiz-adv-x="1108" d="M505 0H746L803 323H976L1004 481H831L984 1350H626L11 483L-17 323H562L505 0ZM254 481L732 1194L716 1193L590 481H254Z" />
<glyph unicode="5" horiz-adv-x="1097" d="M423 -13Q699 -13 829 104T995 479Q1025 705 957 812T692 920Q509 920 359 836T168 588L305 583Q323 668 398 719T581 770Q685 770 731 715T748 474Q715 269 643 210T458 151Q343 151 298 204T274 409H33Q7 219 85 103T423
-13ZM63 583H304L410 1183H1088L1118 1350H199L63 583Z" />
<glyph unicode="6" horiz-adv-x="1108" d="M427 -13Q726 -13 841 116T992 477Q1027 705 963 810T688 916Q497 916 353 821T184 622L292 566Q314 651 392 710T582 769Q693 769 736 714T745 464Q712 280 646 215T460 150Q341 150 295 227T299 598Q371 1010 456 1105T659
1200Q763 1200 797 1141T817 983H1060Q1083 1115 1020 1238T687 1361Q391 1361 258 1193T61 623Q9 289 75 138T427 -13Z" />
<glyph unicode="7" horiz-adv-x="1009" d="M178 0H439Q500 343 656 629T1069 1183L1099 1350H170L140 1182H816L813 1179Q566 938 403 645T178 0Z" />
<glyph unicode="8" horiz-adv-x="1096" d="M435 -14Q702 -14 828 107T984 415Q1013 595 907 683T570 772Q341 772 201 685T30 415Q0 229 78 108T435 -14ZM461 151Q344 151 295 210T270 408Q294 543 361 594T549 646Q669 646 718 595T743 408Q718 270 648 211T461
151ZM555 669Q783 669 911 748T1068 1001Q1092 1151 1010 1256T671 1361Q402 1361 290 1256T154 1001Q126 827 226 748T555 669ZM574 790Q457 790 412 837T388 1005Q405 1103 470 1151T646 1199Q757 1199 805 1151T835 1005Q814 886 753 838T574 790Z" />
<glyph unicode="9" horiz-adv-x="1099" d="M438 -13Q732 -13 859 155T1056 725Q1110 1048 1043 1204T693 1361Q391 1361 275 1239T126 886Q94 661 156 547T430 432Q621 432 765 527T932 726L825 782Q806 697 728 641T538 584Q427 584 382 641T368 885Q398 1070
468 1132T658 1195Q778 1195 822 1119T817 750Q745 325 663 237T463 148Q354 148 320 207T299 365H56Q35 242 95 115T438 -13Z" />
<glyph unicode=":" horiz-adv-x="422" d="M20 203L-16 0H212L248 203H20ZM187 1140L151 937H379L415 1140H187Z" />
<glyph unicode=";" horiz-adv-x="490" d="M207 1143L171 940H399L435 1143H207ZM-109 -148H34L292 214H58L-109 -148Z" />
<glyph unicode="&lt;" horiz-adv-x="781" d="M618 -5L657 212L119 510L111 462L754 760L792 977L57 577L24 395L618 -5Z" />
<glyph unicode="=" horiz-adv-x="597" d="M44 617H562L588 762H70L44 617ZM-28 210H490L516 354H-3L-28 210Z" />
<glyph unicode="&gt;" horiz-adv-x="781" d="M-36 -5L700 395L732 577L138 977L100 761L638 464L646 512L3 212L-36 -5Z" />
<glyph unicode="?" horiz-adv-x="1069" d="M342 332H579Q599 433 647 511T793 665Q876 729 956 819T1055 1049Q1076 1207 985 1283T649 1360Q413 1360 280 1267T105 937H340Q365 1080 436 1143T626 1206Q749 1206 788 1155T812 1010Q797 919 737 859T606 742Q503
668 436 572T342 332ZM328 193L293 -10H520L556 193H328Z" />
<glyph unicode="@" horiz-adv-x="1770" d="M671 -26Q773 -26 859 -12T1011 22T1123 65T1188 104L1074 218Q1067 211 1040 194T967 159T854 127T702 114Q617 114 545 132T415 188T321 285T270 429T272 622Q294 779 360 891T527 1076T756 1182T1027 1217Q1137 1217
1220 1199T1362 1144T1454 1053T1496 926T1490 764Q1474 664 1444 592T1375 473T1289 405T1192 382Q1157 382 1129 393T1090 429T1090 496L1232 1024H1114L1086 924Q1089 944 1073 971T1020 1018T926 1039Q865 1039 803 1014T685 937T589 810T530 633Q515 550 525
488T564 385T638 324T736 304Q799 304 852 319T942 362T995 422Q987 393 995 366T1027 317T1086 284T1169 271Q1232 271 1297 289T1425 345T1541 442T1634 584T1692 775Q1717 913 1690 1021T1585 1204T1378 1318T1071 1358Q914 1358 773 1330T513 1244T302 1098T149
888T67 612Q51 498 63 406T112 243T205 121T335 38T493 -10T671 -26ZM794 409Q762 409 737 425T697 472T679 547T684 646Q694 709 721 760T783 849T858 907T931 927Q965 927 995 913T1041 872T1050 807L978 528Q960 477 909 443T794 409Z" />
<glyph unicode="A" horiz-adv-x="1364" d="M-45 0H207L382 361H896L942 0H1194L987 1352H639L-45 0ZM452 524L787 1208H790L884 524H452Z" />
<glyph unicode="B" horiz-adv-x="1271" d="M-21 0H729Q940 0 1023 110T1128 399Q1146 540 1101 631T944 728Q1052 733 1125 825T1214 1053Q1228 1164 1188 1257T938 1350H217L-21 0ZM253 168L337 649H749Q852 649 880 591T887 411Q865 290 823 229T698 168H253ZM364
799L431 1183H847Q933 1183 955 1139T961 1004Q945 916 900 858T760 799H364Z" />
<glyph unicode="C" horiz-adv-x="1281" d="M526 -8Q844 -8 985 148T1168 539H921Q885 328 792 244T549 160Q396 160 330 257T314 678Q367 1011 472 1102T731 1193Q881 1193 942 1114T969 814H1216Q1253 1059 1165 1210T758 1361Q438 1361 281 1199T67 678Q10 328
108 160T526 -8Z" />
<glyph unicode="D" horiz-adv-x="1260" d="M-21 0H588Q851 0 989 145T1187 676Q1245 1051 1162 1200T816 1350H217L-21 0ZM252 168L431 1182H725Q880 1182 938 1091T942 676Q887 345 795 257T547 168H252Z" />
<glyph unicode="E" horiz-adv-x="1105" d="M-30 0H891L921 168H244L322 608H956L984 769H350L423 1182H1099L1129 1350H208L-30 0Z" />
<glyph unicode="F" horiz-adv-x="1033" d="M-42 0H202L298 546H878L906 706H327L410 1182H1041L1071 1350H196L-42 0Z" />
<glyph unicode="G" horiz-adv-x="1305" d="M504 -8Q830 -8 940 195L932 0H1072L1189 667H664L638 520H922L900 442Q869 291 787 226T552 160Q392 160 333 265T317 669Q367 1000 470 1096T734 1193Q889 1193 946 1112T977 848H1221Q1253 1060 1157 1210T757 1361Q435
1361 279 1197T73 677Q23 328 111 160T504 -8Z" />
<glyph unicode="H" horiz-adv-x="1274" d="M-21 0H223L330 604H904L797 0H1041L1279 1350H1035L933 772H359L461 1350H217L-21 0Z" />
<glyph unicode="I" horiz-adv-x="553" d="M32 0H276L514 1350H271L32 0Z" />
<glyph unicode="J" horiz-adv-x="1233" d="M474 -12Q734 -12 876 88T1056 394L1224 1350H981L819 428Q794 286 719 220T496 154Q347 154 297 220T272 425L304 608H61L23 396Q-14 185 100 87T474 -12Z" />
<glyph unicode="K" horiz-adv-x="1171" d="M-21 0H221L329 609L733 0H1008L563 672L1246 1350H965L352 742L459 1350H217L-21 0Z" />
<glyph unicode="L" horiz-adv-x="996" d="M-21 0H801L831 167H252L461 1350H217L-21 0Z" />
<glyph unicode="M" horiz-adv-x="1662" d="M-21 0H220L428 1180H432L571 63H859L1392 1180H1396L1188 0H1429L1667 1350H1266L739 230H740L608 1350H217L-21 0Z" />
<glyph unicode="N" horiz-adv-x="1433" d="M-21 0H221L439 1236H414L812 0H1200L1438 1350H1195L976 116H1010L609 1350H217L-21 0Z" />
<glyph unicode="O" horiz-adv-x="1339" d="M548 -10Q864 -10 1037 156T1266 675Q1319 1026 1212 1193T789 1361Q473 1361 300 1195T72 675Q17 323 124 157T548 -10ZM577 158Q419 158 342 256T315 675Q367 998 484 1095T760 1193Q918 1193 996 1095T1022 675Q970
354 853 256T577 158Z" />
<glyph unicode="P" horiz-adv-x="1187" d="M-21 0H223L291 384H690Q923 384 1029 535T1158 887Q1181 1066 1131 1208T848 1350H217L-21 0ZM321 552L432 1182H751Q872 1182 905 1103T915 872Q892 714 827 633T640 552H321Z" />
<glyph unicode="Q" horiz-adv-x="1349" d="M901 -214L1090 -125L928 179L732 98L901 -214ZM554 -10Q875 -10 1040 148T1266 675Q1325 1039 1215 1200T783 1361Q462 1361 297 1202T72 675Q12 311 122 151T554 -10ZM577 158Q415 158 337 255T315 675Q373 1000 485
1096T760 1193Q923 1193 1001 1097T1022 675Q965 353 853 256T577 158Z" />
<glyph unicode="R" horiz-adv-x="1222" d="M-21 0H224L324 569H763Q973 569 1067 680T1187 955Q1214 1116 1164 1233T909 1350H217L-21 0ZM769 0H1034L852 647L607 634L769 0ZM351 722L432 1182H802Q905 1182 932 1120T941 952Q923 846 873 784T721 722H351Z" />
<glyph unicode="S" horiz-adv-x="1258" d="M504 -9Q814 -9 956 106T1119 388Q1141 555 1054 626T709 760Q529 805 440 849T367 1004Q379 1091 471 1141T711 1192Q853 1192 922 1133T957 864H1202Q1243 1110 1147 1235T740 1361Q434 1361 287 1248T125 976Q106
819 192 738T528 595Q704 552 796 508T872 354Q858 261 767 210T531 158Q384 158 317 219T285 496H40Q-4 236 91 114T504 -9Z" />
<glyph unicode="T" horiz-adv-x="1206" d="M357 0H601L809 1182H1218L1248 1350H184L154 1182H565L357 0Z" />
<glyph unicode="U" horiz-adv-x="1323" d="M534 -9Q808 -9 965 91T1165 429L1327 1350H1083L926 458Q897 294 812 227T563 159Q402 159 340 226T307 458L465 1350H221L58 429Q16 192 138 92T534 -9Z" />
<glyph unicode="V" horiz-adv-x="1283" d="M337 0H694L1333 1350H1081L534 141H540L421 1350H175L337 0Z" />
<glyph unicode="W" horiz-adv-x="1886" d="M202 0H575L1036 1200H1029L1064 0H1438L1939 1350H1674L1257 151H1270L1218 1350H895L421 151H434L444 1350H182L202 0Z" />
<glyph unicode="X" horiz-adv-x="1283" d="M-71 0H212L631 565L852 0H1133L833 668L1359 1350H1077L668 771L463 1350H181L465 668L-71 0Z" />
<glyph unicode="Y" horiz-adv-x="1305" d="M501 511H731L1376 1350H1107L641 724H661L414 1350H152L501 511ZM404 0H648L763 652H519L404 0Z" />
<glyph unicode="Z" horiz-adv-x="1124" d="M-40 0H919L949 168H262L1101 1181L1131 1350H209L180 1183H829L-9 175L-40 0Z" />
<glyph unicode="[" horiz-adv-x="633" d="M-90 -348H405L434 -187H139L396 1280H691L721 1442H226L-90 -348Z" />
<glyph unicode="\" horiz-adv-x="770" d="M399 0H617L387 1348H171L399 0Z" />
<glyph unicode="]" horiz-adv-x="634" d="M-87 -348H409L724 1441H229L200 1280H495L238 -187H-58L-87 -348Z" />
<glyph unicode="^" horiz-adv-x="742" d="M144 1221H303L565 1446H417L144 1221ZM639 1223H789L599 1446H456L639 1223Z" />
<glyph unicode="_" horiz-adv-x="1227" d="M-142 -201H1088L1117 -42H-113L-142 -201Z" />
<glyph unicode="`" horiz-adv-x="624" d="M424 1214H539L420 1393H252L424 1214Z" />
<glyph unicode="a" horiz-adv-x="1226" d="M385 -12Q470 -12 541 3T666 41T757 92T808 146L803 0H1005L1137 749Q1166 915 1120 1012T965 1153T695 1196Q591 1196 500 1177T335 1116T207 1008T121 847L347 782Q376 873 423 927T532 1007T669 1032Q750 1032 808
1005T892 919T897 761L886 700H502Q438 700 375 692T255 661T150 600T69 499T22 349Q7 258 19 194T65 90T148 28T258 -3T385 -12ZM465 143Q420 143 380 151T310 183T269 247T268 355Q279 421 304 462T366 526T445 556T535 564H867L813 292Q799 262 766 235T687
187T584 155T465 143Z" />
<glyph unicode="b" horiz-adv-x="1234" d="M-16 0H204L257 181L502 1570H260L-16 0ZM602 -8Q824 -8 960 148T1141 600Q1185 887 1110 1041T812 1196Q613 1196 455 1098T277 890L361 772Q379 873 480 950T702 1028Q829 1028 883 936T896 596Q854 344 765 252T549
159Q427 159 354 236T298 416L171 297Q152 187 277 90T602 -8Z" />
<glyph unicode="c" horiz-adv-x="1181" d="M494 -11Q756 -11 886 121T1053 390L850 466Q823 336 735 247T519 157Q394 157 336 254T302 564Q329 832 430 929T671 1027Q799 1027 854 944T894 715L1123 788Q1132 940 1046 1068T696 1196Q397 1196 240 1037T56 553Q32
292 120 141T494 -11Z" />
<glyph unicode="d" horiz-adv-x="1224" d="M782 0H1006L1282 1570H1042L798 181L782 0ZM393 -8Q592 -8 748 89T925 297L839 416Q821 314 722 237T501 159Q379 159 325 246T300 569Q330 835 423 931T654 1028Q775 1028 847 951T902 772L1028 890Q1048 1000 924
1098T600 1196Q361 1196 221 1030T55 546Q30 286 105 139T393 -8Z" />
<glyph unicode="e" horiz-adv-x="1236" d="M506 -11L534 147Q390 147 326 248T303 594Q346 851 448 944T688 1038Q828 1038 890 949T915 646L931 670H292L266 522H1129Q1140 555 1147 597Q1198 889 1104 1042T716 1196Q430 1196 275 1044T69 594Q22 311 117 150T506
-11ZM534 147L506 -11Q665 -11 771 27T956 146T1076 348L869 407Q837 327 793 264T683 174T534 147Z" />
<glyph unicode="f" horiz-adv-x="944" d="M164 0H405L584 1018H917L946 1185H613L625 1247Q643 1349 729 1383T968 1417H1000L1027 1578H991Q736 1578 576 1504T384 1248L374 1185H130L101 1018H343L164 0Z" />
<glyph unicode="g" horiz-adv-x="1244" d="M397 -466Q560 -466 677 -421T886 -264T1013 43L1215 1185H1036L930 945L767 19Q732 -180 644 -245T430 -311Q354 -311 300 -287T221 -210T202 -70H-33Q-52 -288 72 -377T397 -466ZM389 -8Q589 -8 746 87T922 296L837
416Q819 314 719 237T499 159Q371 159 315 249T302 594Q344 847 434 937T652 1028Q773 1028 845 951T900 772L1026 884Q1045 994 922 1095T599 1196Q378 1196 240 1045T58 595Q13 298 90 145T389 -8Z" />
<glyph unicode="h" horiz-adv-x="1214" d="M-17 0H225L503 1570H261L-17 0ZM743 0H984L1102 672Q1145 917 1081 1056T803 1196Q586 1196 428 1060T243 776L350 709Q374 848 470 938T686 1028Q804 1028 849 947T859 662L743 0Z" />
<glyph unicode="i" horiz-adv-x="516" d="M25 0H267L476 1186H234L25 0ZM293 1519L258 1323H500L535 1519H293Z" />
<glyph unicode="j" horiz-adv-x="529" d="M-318 -460Q-65 -460 83 -364T279 1L489 1186H247L36 -9Q7 -174 -74 -233T-288 -292L-318 -460ZM306 1519L271 1323H513L548 1519H306Z" />
<glyph unicode="k" horiz-adv-x="1163" d="M-16 0H225L312 494L276 378L566 634L514 628L729 0H986L710 767L687 725L1179 1186H893L279 632L331 601L501 1570H260L-16 0Z" />
<glyph unicode="l" horiz-adv-x="495" d="M7 0H249L526 1570H284L7 0Z" />
<glyph unicode="m" horiz-adv-x="1801" d="M-17 0H225L400 993L380 1185H192L-17 0ZM658 0H899L1025 715Q1061 917 1011 1056T750 1195Q565 1195 411 1058T225 750L345 691Q373 852 454 939T643 1027Q747 1027 779 948T780 697L658 0ZM1330 0H1571L1697 715Q1733
917 1684 1056T1424 1195Q1240 1195 1085 1057T900 750L1019 691Q1048 852 1129 939T1317 1027Q1422 1027 1452 948T1453 697L1330 0Z" />
<glyph unicode="n" horiz-adv-x="1205" d="M-17 0H224L395 969L381 1186H193L-17 0ZM734 0H975L1092 665Q1135 910 1073 1053T797 1196Q580 1196 421 1060T235 776L341 709Q365 848 463 938T680 1028Q798 1028 842 947T851 662L734 0Z" />
<glyph unicode="o" horiz-adv-x="1242" d="M499 -9Q782 -9 942 141T1148 597Q1195 898 1093 1048T707 1198Q424 1198 264 1050T58 597Q12 294 114 143T499 -9ZM526 156Q394 156 327 248T299 596Q339 849 443 940T680 1032Q812 1032 879 941T906 596Q866 341 762
249T526 156Z" />
<glyph unicode="p" horiz-adv-x="1234" d="M-95 -443H146L398 987L380 1185H192L-95 -443ZM601 -8Q823 -8 958 146T1140 595Q1187 890 1110 1043T811 1196Q612 1196 454 1098T275 890L360 772Q378 873 479 950T701 1028Q829 1028 883 937T896 594Q854 341 764
250T548 159Q426 159 353 236T297 416L171 297Q151 187 276 90T601 -8Z" />
<glyph unicode="q" horiz-adv-x="1238" d="M686 -443H927L1214 1185H1026L936 973L686 -443ZM391 -8Q591 -8 748 89T926 297L840 416Q822 314 723 237T502 159Q379 159 325 246T301 569Q330 835 423 931T655 1028Q776 1028 848 951T903 772L1029 890Q1048 1000
924 1098T601 1196Q367 1196 229 1039T57 570Q22 292 98 142T391 -8Z" />
<glyph unicode="r" horiz-adv-x="1177" d="M815 623H1057Q1109 920 1053 1058T784 1196Q582 1196 442 1087T273 820L357 757Q375 862 460 944T667 1027Q774 1027 815 944T815 623ZM-17 0H224L394 963L380 1185H192L-17 0Z" />
<glyph unicode="s" horiz-adv-x="1206" d="M494 -9Q716 -9 872 74T1052 325Q1076 499 980 571T678 681Q519 709 432 743T358 870Q368 945 440 990T639 1035Q772 1035 841 973T907 790L1134 864Q1132 1043 1011 1119T666 1195Q445 1195 294 1115T120 872Q95 700
190 626T476 516Q644 481 734 447T811 313Q801 243 727 198T521 152Q381 152 310 212T242 408L16 333Q20 142 147 67T494 -9Z" />
<glyph unicode="t" horiz-adv-x="1001" d="M518 -14Q636 -14 747 12L775 174Q701 150 627 150Q547 150 510 183T492 323L615 1017H998L1028 1185H644L692 1454H450L403 1185H127L97 1017H373L241 267Q212 106 296 46T518 -14Z" />
<glyph unicode="u" horiz-adv-x="1208" d="M788 0H975L1183 1185H942L770 205L788 0ZM426 1186H184L66 514Q23 269 84 130T360 -10Q589 -10 743 126T925 410L818 472Q794 333 694 246T475 158Q357 158 315 239T309 524L426 1186Z" />
<glyph unicode="v" horiz-adv-x="1174" d="M291 0H637L1212 1186H955L486 150H487L383 1186H133L291 0Z" />
<glyph unicode="w" horiz-adv-x="1709" d="M204 0H531L1006 1185H824L397 147H404L408 1185H161L204 0ZM949 0H1273L1732 1185H1479L1124 148H1131L1070 1185H889L949 0Z" />
<glyph unicode="x" horiz-adv-x="1194" d="M-78 0H195L567 493L771 0H1045L764 593L1245 1185H972L612 692L420 1185H146L417 593L-78 0Z" />
<glyph unicode="y" horiz-adv-x="1112" d="M267 0H635L1183 1185H930L441 98L493 99L384 1186L131 1185L267 0ZM-100 -463Q153 -463 329 -372T635 0L411 2Q326 -180 218 -239T-70 -298L-100 -463Z" />
<glyph unicode="z" horiz-adv-x="1017" d="M-36 0H821L850 167H252L250 153L989 1018L1019 1185H179L150 1018H741L742 1031L-6 167L-36 0Z" />
<glyph unicode="{" horiz-adv-x="693" d="M461 -349L490 -188Q466 -188 435 -183T376 -161T336 -106T333 -6L386 292Q395 346 385 384T354 447T307 486T260 507T229 517Q239 519 262 524T315 541T374 575T427 633T460 724L519 1057Q531 1120 557 1158T617 1218T684
1247T743 1255L773 1416Q720 1416 664 1408T554 1379T454 1323T375 1233T328 1101L276 799Q262 722 228 679T149 618T62 600L32 436Q76 436 114 419T171 363T179 256L132 -18Q118 -94 131 -149T176 -243T255 -305T354 -338T461 -349Z" />
<glyph unicode="|" horiz-adv-x="345" d="M-82 -226H118L408 1422H208L-82 -226Z" />
<glyph unicode="}" horiz-adv-x="681" d="M-90 -348Q-37 -348 19 -340T129 -312T229 -256T308 -166T354 -34L408 268Q421 345 455 388T533 450T621 468L650 631Q607 631 569 648T512 705T504 812L552 1085Q565 1161 552 1217T506 1311T428 1372T329 1405T222 1416L193
1255Q217 1255 248 1250T307 1228T347 1174T350 1074L297 776Q288 722 298 684T330 621T377 582T423 560T454 551Q444 548 421 543T368 527T308 493T255 435T222 344L164 10Q153 -52 126 -91T66 -151T-1 -180T-60 -188L-90 -348Z" />
<glyph unicode="~" horiz-adv-x="806" d="M572 573Q625 573 668 587T741 618T780 645L688 778Q682 771 656 755T574 739Q530 739 501 750T447 775T391 800T308 811Q252 811 202 795T115 757T60 721L153 594Q168 608 210 631T305 654Q346 654 373 642T426 614T485
586T572 573Z" />
<glyph unicode="&#xa0;" horiz-adv-x="503" />
<glyph unicode="&#xa1;" horiz-adv-x="398" d="M348 831H114L-85 -175H193L348 831ZM386 973L423 1186H183L145 973H386Z" />
<glyph unicode="&#xa2;" horiz-adv-x="1182" d="M605 1232H775L801 1380H631L605 1232ZM382 -30H551L578 122H409L382 -30ZM502 70Q765 70 895 202T1061 471L859 547Q831 416 744 327T528 238Q403 238 345 335T310 645Q337 912 439 1010T679 1108Q807 1108 863
1025T903 796L1131 869Q1141 1021 1054 1148T705 1276Q406 1276 249 1117T64 634Q40 373 128 222T502 70Z" />
<glyph unicode="&#xa3;" horiz-adv-x="1163" d="M107 -25Q133 -10 202 6T375 23Q434 23 475 17T549 2T619 -14T705 -21Q763 -21 814 -17T900 -8T948 2L907 160Q882 150 841 145T737 139Q700 140 670 145T609 157T543 170T459 175Q422 175 384 168T309 148T243
123T198 99L230 80Q268 101 314 144T399 248T449 381Q463 459 465 522T463 641T453 748T448 855T459 974Q472 1046 506 1097T594 1176T716 1204Q787 1204 831 1184T900 1130T935 1056L1144 1130Q1133 1168 1107 1209T1034 1285T913 1342T734 1364Q612 1364 522
1334T371 1250T274 1129T225 984Q212 911 213 854T222 744T237 638T245 520T231 374Q221 313 195 268T137 190T78 140T40 116L107 -25ZM42 586H788L821 747H76L42 586Z" />
<glyph unicode="&#xa4;" horiz-adv-x="1166" d="M510 188Q804 188 935 310T1102 635Q1136 839 1049 963T668 1087Q373 1087 242 964T76 638Q42 434 128 311T510 188ZM60 90L312 303L218 391L-33 178L60 90ZM921 90L1046 178L871 391L747 303L921 90ZM534 333Q398
333 344 404T317 638Q345 802 426 872T644 942Q780 942 833 872T861 638Q834 475 752 404T534 333ZM306 882L429 970L255 1183L131 1095L306 882ZM957 882L1208 1095L1114 1183L863 970L957 882Z" />
<glyph unicode="&#xa5;" horiz-adv-x="1310" d="M186 468H1033L1056 600H209L186 468ZM143 227H990L1014 359H167L143 227ZM501 511H731L1376 1350H1107L641 724H661L414 1350H152L501 511ZM404 0H648L763 652H519L404 0Z" />
<glyph unicode="&#xa6;" horiz-adv-x="344" d="M-84 -156H116L233 504H33L-84 -156ZM79 764H279L395 1422H195L79 764Z" />
<glyph unicode="&#xa7;" horiz-adv-x="1199" d="M427 -278Q503 -278 572 -267T701 -235T805 -183T880 -114T920 -28Q932 21 923 61T895 131T855 182T821 211Q837 220 866 234T929 268T997 317T1056 384T1090 474Q1100 529 1082 576T1025 662T933 735T819 796T697
848Q641 877 587 903T490 956T423 1013T405 1082Q412 1129 448 1161T545 1210T687 1227Q759 1227 811 1213T887 1163T901 1067L890 1007H1095L1106 1067Q1117 1130 1097 1183T1027 1276T897 1338T705 1360Q606 1360 522 1343T374 1293T270 1215T217 1114Q209 1075
215 1039T238 972T276 917T318 878Q292 866 250 846T164 794T87 718T45 610Q35 540 60 487T134 394T246 324T378 267Q454 234 521 206T638 148T713 85T730 8Q721 -42 683 -76T583 -127T445 -145Q373 -145 322 -130T247 -79T234 17L244 75H41L30 15Q19 -50 37 -103T103
-196T232 -256T427 -278ZM716 290Q671 311 619 331T516 373T422 417Q361 440 317 468T250 532T236 614Q243 651 266 681T319 736T381 778T434 808Q467 790 510 771T597 732T680 692Q725 672 768 650T846 602T898 546T907 478Q899 440 876 410T823 356T764 317T716
290Z" />
<glyph unicode="&#xa8;" horiz-adv-x="830" d="M340 1207Q375 1207 402 1233T430 1296Q430 1325 411 1344T363 1363Q328 1363 301 1337T273 1275Q273 1246 291 1227T340 1207ZM675 1207Q709 1207 737 1233T765 1296Q765 1325 746 1344T698 1363Q663 1363 635 1337T607
1275Q607 1246 626 1227T675 1207Z" />
<glyph unicode="&#xa9;" horiz-adv-x="1308" d="M526 -18Q688 -18 808 23T1012 136T1146 303T1215 505L1274 838Q1293 945 1277 1039T1202 1205T1036 1318T768 1359Q607 1359 487 1318T284 1206T151 1040T82 838L23 505Q3 398 20 303T95 136T260 23T526 -18ZM546
99Q439 99 367 121T250 181T184 272T162 385T171 514L226 827Q237 890 259 950T319 1062T416 1155T557 1219T748 1242Q859 1242 933 1220T1051 1157T1114 1064T1135 951T1125 827L1069 510Q1058 448 1037 389T978 277T882 185T742 122T546 99ZM572 253Q648 253
712 271T824 322T902 403T942 509L954 572H818L812 535Q808 513 800 490T777 444T738 405T677 377T589 367Q526 367 491 382T442 424T428 483T435 550L478 791Q485 825 496 857T531 916T595 959T699 975Q751 975 784 966T835 940T859 902T866 858T861 813L854 775H990L1000
835Q1009 882 1002 921T974 991T916 1043T831 1076T718 1088Q642 1088 579 1069T469 1013T391 925T347 808L296 522Q285 461 298 412T346 327T438 272T572 253Z" />
<glyph unicode="&#xaa;" horiz-adv-x="740" d="M538 831H665L717 1130Q738 1244 688 1303T482 1363Q341 1363 270 1320T183 1202L267 1160Q276 1213 327 1244T460 1275Q545 1275 569 1241T581 1131L534 864L538 831ZM333 825Q454 825 532 866T621 971L556 990Q549
953 506 932T380 910Q312 910 287 926T268 980Q274 1014 307 1035T415 1058Q496 1060 591 1060L604 1136Q490 1135 404 1131Q263 1125 203 1084T132 976Q121 900 167 863T333 825Z" />
<glyph unicode="&#xab;" horiz-adv-x="1177" d="M381 80H624L274 494L774 908H523L30 494L381 80ZM789 80H1033L682 494L1182 908H931L438 494L789 80Z" />
<glyph unicode="&#xac;" horiz-adv-x="909" d="M621 211H783L846 564H67L40 413H718L665 459L621 211Z" />
<glyph unicode="&#xad;" horiz-adv-x="605" d="M31 398H502L531 559H60L31 398Z" />
<glyph unicode="&#xae;" horiz-adv-x="1172" d="M529 443Q670 443 776 475T958 565T1077 703T1139 877L1166 1034Q1183 1130 1167 1210T1098 1350T949 1443T712 1476Q599 1476 509 1455T348 1394T229 1300T148 1180T105 1041L78 884Q65 810 72 744T109 623T194
528T332 465T529 443ZM545 556Q459 556 396 568T292 606T229 671T203 763T210 884L236 1026Q247 1092 270 1146T330 1240T419 1308T541 1349T699 1363Q785 1363 848 1350T952 1310T1015 1243T1040 1150T1032 1029L1007 889Q996 823 973 770T913 677T824 610T703
570T545 556ZM351 658H469L514 907H661L687 658H809L770 916Q813 925 838 963T872 1048L884 1114Q892 1159 884 1192T845 1245T756 1264H457L351 658ZM529 994L559 1172H712Q740 1172 752 1165T766 1143T764 1105L758 1068Q750 1022 732 1008T685 994H529Z" />
<glyph unicode="&#xaf;" horiz-adv-x="934" d="M248 1300H866L882 1392H265L248 1300Z" />
<glyph unicode="&#xb0;" horiz-adv-x="282" d="M255 1169Q297 1169 332 1198T375 1270Q385 1323 356 1361T276 1399Q233 1399 198 1370T155 1299Q146 1246 175 1208T255 1169ZM257 1241Q242 1241 232 1253T225 1284Q228 1304 241 1315T271 1327Q289 1327 297 1315T303
1285Q300 1264 288 1253T257 1241Z" />
<glyph unicode="&#xb1;" horiz-adv-x="557" d="M173 405H332L366 602H530L558 751H393L427 949H269L234 751H69L41 602H208L173 405ZM-9 141H407L435 290H19L-9 141Z" />
<glyph unicode="&#xb2;" horiz-adv-x="708" d="M74 750H669L684 836H211Q216 864 274 894T462 970Q586 1020 663 1067T749 1193Q756 1260 703 1311T479 1363Q307 1363 233 1302T142 1149H260Q272 1216 326 1246T471 1276Q556 1276 597 1259T631 1194Q625 1148
569 1116T383 1038Q240 989 169 937T86 823L74 750Z" />
<glyph unicode="&#xb3;" horiz-adv-x="736" d="M385 743Q569 743 640 793T719 924Q725 982 694 1017T556 1055Q662 1057 711 1093T767 1190Q775 1265 721 1314T486 1363Q310 1363 238 1305T146 1143H263Q277 1223 330 1250T478 1277Q576 1277 616 1253T646 1169Q641
1128 587 1111T411 1092L398 1013Q528 1013 570 997T605 938Q596 879 546 854T397 828Q298 828 257 854T229 955H113Q95 855 150 799T385 743Z" />
<glyph unicode="&#xb4;" horiz-adv-x="623" d="M242 1214H363L598 1393H424L242 1214Z" />
<glyph unicode="&#xb5;" horiz-adv-x="1204" d="M-102 -443H139L267 281L184 1186L-102 -443ZM788 0H975L1183 1185H942L770 205L788 0ZM426 1186H184L66 514Q23 269 84 130T360 -10Q589 -10 743 126T925 410L818 472Q794 333 694 246T475 158Q357 158 315 239T309
524L426 1186Z" />
<glyph unicode="&#xb6;" horiz-adv-x="1118" d="M340 -156H499L735 1189H985L749 -156H908L1174 1350H580Q435 1350 335 1313T176 1199T97 1009Q80 910 98 839T167 721T292 653T465 631H479L340 -156Z" />
<glyph unicode="&#xb7;" horiz-adv-x="418" d="M128 773L92 570H320L356 773H128Z" />
<glyph unicode="&#xb8;" horiz-adv-x="755" d="M179 -314Q229 -314 278 -304T368 -274T436 -225T471 -157Q480 -104 448 -79T356 -53Q310 -53 268 -66T203 -98L192 -143Q209 -133 233 -126T279 -119Q303 -119 316 -127T326 -154Q321 -179 289 -194T199 -209Q162
-209 131 -204T78 -193L25 -296Q61 -304 100 -309T179 -314ZM192 -143L267 0H166L104 -131L192 -143Z" />
<glyph unicode="&#xb9;" horiz-adv-x="655" d="M79 750H618L634 836H423L516 1358H419L170 1310L154 1220L381 1258L307 836H95L79 750Z" />
<glyph unicode="&#xba;" horiz-adv-x="704" d="M407 825Q566 825 653 878T763 1054L777 1136Q799 1260 727 1312T494 1365Q334 1365 247 1312T137 1136L122 1054Q100 932 173 879T407 825ZM419 923Q334 923 300 952T278 1053L294 1138Q307 1211 350 1239T480 1267Q564
1267 599 1239T622 1138L606 1053Q593 981 549 952T419 923Z" />
<glyph unicode="&#xbb;" horiz-adv-x="1179" d="M384 80H635L1127 494L777 908H533L883 494L384 80ZM-25 80H226L720 494L369 908H125L476 494L-25 80Z" />
<glyph unicode="&#xbc;" horiz-adv-x="1841" d="M79 750H618L634 836H423L516 1358H419L170 1310L154 1220L381 1258L307 836H95L79 750ZM266 0H394L1540 1348H1412L266 0ZM1435 0H1551L1577 141H1701L1715 222H1591L1659 608H1479L1084 223L1070 141H1460L1435
0ZM1220 222L1523 528H1528L1474 222H1220Z" />
<glyph unicode="&#xbd;" horiz-adv-x="1832" d="M79 750H618L634 836H423L516 1358H419L170 1310L154 1220L381 1258L307 836H95L79 750ZM266 0H394L1540 1348H1412L266 0ZM1066 0H1661L1676 86H1203Q1208 114 1266 144T1454 220Q1578 270 1655 317T1741 443Q1748
510 1695 561T1471 613Q1299 613 1225 552T1134 399H1252Q1264 466 1318 496T1463 526Q1548 526 1589 509T1623 444Q1617 398 1561 366T1375 288Q1232 239 1161 187T1078 73L1066 0Z" />
<glyph unicode="&#xbe;" horiz-adv-x="1922" d="M385 743Q569 743 640 793T719 924Q725 982 694 1017T556 1055Q662 1057 711 1093T767 1190Q775 1265 721 1314T486 1363Q310 1363 238 1305T146 1143H263Q277 1223 330 1250T478 1277Q576 1277 616 1253T646 1169Q641
1128 587 1111T411 1092L398 1013Q528 1013 570 997T605 938Q596 879 546 854T397 828Q298 828 257 854T229 955H113Q95 855 150 799T385 743ZM347 0H475L1621 1348H1493L347 0ZM1516 0H1632L1658 141H1782L1796 222H1672L1740 608H1560L1165 223L1151 141H1541L1516
0ZM1301 222L1604 528H1609L1555 222H1301Z" />
<glyph unicode="&#xbf;" horiz-adv-x="1035" d="M685 844H448Q428 743 380 665T234 511Q151 447 71 357T-28 126Q-49 -31 42 -107T378 -184Q614 -184 747 -91T922 238H687Q662 95 591 33T401 -30Q278 -30 239 20T215 166Q230 257 290 317T421 434Q524 508 591
603T685 844ZM699 983L734 1186H507L471 983H699Z" />
<glyph unicode="&#xc0;" horiz-adv-x="1364" d="M-45 0H207L382 361H896L942 0H1194L987 1352H639L-45 0ZM452 524L787 1208H790L884 524H452ZM875 1407H990L871 1586H703L875 1407Z" />
<glyph unicode="&#xc1;" horiz-adv-x="1364" d="M-45 0H207L382 361H896L942 0H1194L987 1352H639L-45 0ZM452 524L787 1208H790L884 524H452ZM663 1392H784L1019 1571H845L663 1392Z" />
<glyph unicode="&#xc2;" horiz-adv-x="1364" d="M-45 0H207L382 361H896L942 0H1194L987 1352H639L-45 0ZM452 524L787 1208H790L884 524H452ZM541 1401H686L850 1533L968 1401H1112L937 1587H780L541 1401Z" />
<glyph unicode="&#xc3;" horiz-adv-x="1364" d="M-45 0H207L382 361H896L942 0H1194L987 1352H639L-45 0ZM452 524L787 1208H790L884 524H452ZM946 1425Q992 1425 1025 1436T1083 1467T1122 1509T1145 1551T1157 1586H1037Q1034 1574 1023 1559T994 1533T950 1522Q919
1522 899 1533T859 1559T816 1585T751 1596Q706 1596 672 1584T613 1554T573 1514T549 1472T536 1436H657Q660 1449 670 1463T700 1488T746 1499Q773 1499 792 1488T831 1462T878 1436T946 1425Z" />
<glyph unicode="&#xc4;" horiz-adv-x="1364" d="M-45 0H207L382 361H896L942 0H1194L987 1352H639L-45 0ZM452 524L787 1208H790L884 524H452ZM661 1416Q696 1416 723 1442T751 1505Q751 1534 732 1553T684 1572Q649 1572 622 1546T594 1484Q594 1455 612 1436T661
1416ZM996 1416Q1030 1416 1058 1442T1086 1505Q1086 1534 1067 1553T1019 1572Q984 1572 956 1546T928 1484Q928 1455 947 1436T996 1416Z" />
<glyph unicode="&#xc5;" horiz-adv-x="1364" d="M-45 0H207L382 361H896L942 0H1194L987 1352H639L-45 0ZM452 524L787 1208H790L884 524H452ZM830 1388Q868 1388 901 1406T956 1455T983 1524Q992 1581 959 1620T868 1659Q829 1659 797 1641T742 1593T714 1524Q706
1466 739 1427T830 1388ZM842 1477Q824 1477 813 1490T804 1524Q807 1544 822 1556T855 1569Q874 1569 885 1557T893 1524Q891 1504 876 1491T842 1477Z" />
<glyph unicode="&#xc6;" horiz-adv-x="1895" d="M-45 0H213L1010 1261L1026 1350H815L-45 0ZM296 298H862L891 461H377L296 298ZM760 0H1681L1711 168H1034L1112 608H1746L1774 769H1140L1213 1182H1890L1919 1350H998L760 0Z" />
<glyph unicode="&#xc7;" horiz-adv-x="1281" d="M526 -8Q844 -8 985 148T1168 539H921Q885 328 792 244T549 160Q396 160 330 257T314 678Q367 1011 472 1102T731 1193Q881 1193 942 1114T969 814H1216Q1253 1059 1165 1210T758 1361Q438 1361 281 1199T67 678Q10
328 108 160T526 -8ZM460 -314Q510 -314 559 -304T649 -274T717 -225T752 -157Q761 -104 729 -79T637 -53Q591 -53 549 -66T484 -98L473 -143Q490 -133 514 -126T560 -119Q584 -119 597 -127T607 -154Q602 -179 570 -194T480 -209Q443 -209 412 -204T359 -193L306
-296Q342 -304 381 -309T460 -314ZM473 -143L548 0H447L385 -131L473 -143Z" />
<glyph unicode="&#xc8;" horiz-adv-x="1105" d="M-30 0H891L921 168H244L322 608H956L984 769H350L423 1182H1099L1129 1350H208L-30 0ZM717 1407H832L713 1586H545L717 1407Z" />
<glyph unicode="&#xc9;" horiz-adv-x="1105" d="M-30 0H891L921 168H244L322 608H956L984 769H350L423 1182H1099L1129 1350H208L-30 0ZM505 1392H626L861 1571H687L505 1392Z" />
<glyph unicode="&#xca;" horiz-adv-x="1105" d="M-30 0H891L921 168H244L322 608H956L984 769H350L423 1182H1099L1129 1350H208L-30 0ZM383 1401H528L692 1533L810 1401H954L779 1587H622L383 1401Z" />
<glyph unicode="&#xcb;" horiz-adv-x="1105" d="M-30 0H891L921 168H244L322 608H956L984 769H350L423 1182H1099L1129 1350H208L-30 0ZM503 1416Q538 1416 565 1442T593 1505Q593 1534 574 1553T526 1572Q491 1572 464 1546T436 1484Q436 1455 454 1436T503 1416ZM838
1416Q872 1416 900 1442T928 1505Q928 1534 909 1553T861 1572Q826 1572 798 1546T770 1484Q770 1455 789 1436T838 1416Z" />
<glyph unicode="&#xcc;" horiz-adv-x="553" d="M32 0H276L514 1350H271L32 0ZM461 1407H576L457 1586H289L461 1407Z" />
<glyph unicode="&#xcd;" horiz-adv-x="553" d="M32 0H276L514 1350H271L32 0ZM249 1392H370L605 1571H431L249 1392Z" />
<glyph unicode="&#xce;" horiz-adv-x="553" d="M32 0H276L514 1350H271L32 0ZM127 1401H272L436 1533L554 1401H698L523 1587H366L127 1401Z" />
<glyph unicode="&#xcf;" horiz-adv-x="553" d="M32 0H276L514 1350H271L32 0ZM247 1416Q282 1416 309 1442T337 1505Q337 1534 318 1553T270 1572Q235 1572 208 1546T180 1484Q180 1455 198 1436T247 1416ZM582 1416Q616 1416 644 1442T672 1505Q672 1534 653
1553T605 1572Q570 1572 542 1546T514 1484Q514 1455 533 1436T582 1416Z" />
<glyph unicode="&#xd0;" horiz-adv-x="1297" d="M-32 596H546L571 757H-6L-32 596ZM16 0H625Q888 0 1026 145T1224 676Q1283 1051 1200 1200T853 1350H254L16 0ZM290 168L468 1182H763Q918 1182 976 1091T980 676Q924 345 832 257T584 168H290Z" />
<glyph unicode="&#xd1;" horiz-adv-x="1433" d="M-21 0H221L439 1236H414L812 0H1200L1438 1350H1195L976 116H1010L609 1350H217L-21 0ZM964 1425Q1010 1425 1043 1436T1101 1467T1140 1509T1163 1551T1175 1586H1055Q1052 1574 1041 1559T1012 1533T968 1522Q937
1522 917 1533T877 1559T834 1585T769 1596Q724 1596 690 1584T631 1554T591 1514T567 1472T554 1436H675Q678 1449 688 1463T718 1488T764 1499Q791 1499 810 1488T849 1462T896 1436T964 1425Z" />
<glyph unicode="&#xd2;" horiz-adv-x="1339" d="M548 -10Q864 -10 1037 156T1266 675Q1319 1026 1212 1193T789 1361Q473 1361 300 1195T72 675Q17 323 124 157T548 -10ZM577 158Q419 158 342 256T315 675Q367 998 484 1095T760 1193Q918 1193 996 1095T1022 675Q970
354 853 256T577 158ZM844 1407H959L840 1586H672L844 1407Z" />
<glyph unicode="&#xd3;" horiz-adv-x="1339" d="M548 -10Q864 -10 1037 156T1266 675Q1319 1026 1212 1193T789 1361Q473 1361 300 1195T72 675Q17 323 124 157T548 -10ZM577 158Q419 158 342 256T315 675Q367 998 484 1095T760 1193Q918 1193 996 1095T1022 675Q970
354 853 256T577 158ZM632 1392H753L988 1571H814L632 1392Z" />
<glyph unicode="&#xd4;" horiz-adv-x="1339" d="M548 -10Q864 -10 1037 156T1266 675Q1319 1026 1212 1193T789 1361Q473 1361 300 1195T72 675Q17 323 124 157T548 -10ZM577 158Q419 158 342 256T315 675Q367 998 484 1095T760 1193Q918 1193 996 1095T1022 675Q970
354 853 256T577 158ZM510 1401H655L819 1533L937 1401H1081L906 1587H749L510 1401Z" />
<glyph unicode="&#xd5;" horiz-adv-x="1339" d="M548 -10Q864 -10 1037 156T1266 675Q1319 1026 1212 1193T789 1361Q473 1361 300 1195T72 675Q17 323 124 157T548 -10ZM577 158Q419 158 342 256T315 675Q367 998 484 1095T760 1193Q918 1193 996 1095T1022 675Q970
354 853 256T577 158ZM915 1425Q961 1425 994 1436T1052 1467T1091 1509T1114 1551T1126 1586H1006Q1003 1574 992 1559T963 1533T919 1522Q888 1522 868 1533T828 1559T785 1585T720 1596Q675 1596 641 1584T582 1554T542 1514T518 1472T505 1436H626Q629 1449
639 1463T669 1488T715 1499Q742 1499 761 1488T800 1462T847 1436T915 1425Z" />
<glyph unicode="&#xd6;" horiz-adv-x="1339" d="M548 -10Q864 -10 1037 156T1266 675Q1319 1026 1212 1193T789 1361Q473 1361 300 1195T72 675Q17 323 124 157T548 -10ZM577 158Q419 158 342 256T315 675Q367 998 484 1095T760 1193Q918 1193 996 1095T1022 675Q970
354 853 256T577 158ZM630 1416Q665 1416 692 1442T720 1505Q720 1534 701 1553T653 1572Q618 1572 591 1546T563 1484Q563 1455 581 1436T630 1416ZM965 1416Q999 1416 1027 1442T1055 1505Q1055 1534 1036 1553T988 1572Q953 1572 925 1546T897 1484Q897 1455
916 1436T965 1416Z" />
<glyph unicode="&#xd7;" horiz-adv-x="525" d="M341 242L462 348L163 712L42 608L341 242ZM86 242L507 608L417 712L-4 348L86 242Z" />
<glyph unicode="&#xd8;" horiz-adv-x="1226" d="M-63 0H70L1284 1348H1154L-63 0ZM548 -10Q864 -10 1037 156T1266 675Q1319 1026 1212 1193T789 1361Q473 1361 300 1195T72 675Q17 323 124 157T548 -10ZM577 158Q419 158 342 256T315 675Q367 998 484 1095T760
1193Q918 1193 996 1095T1022 675Q970 354 853 256T577 158Z" />
<glyph unicode="&#xd9;" horiz-adv-x="1323" d="M534 -9Q808 -9 965 91T1165 429L1327 1350H1083L926 458Q897 294 812 227T563 159Q402 159 340 226T307 458L465 1350H221L58 429Q16 192 138 92T534 -9ZM847 1407H962L843 1586H675L847 1407Z" />
<glyph unicode="&#xda;" horiz-adv-x="1323" d="M534 -9Q808 -9 965 91T1165 429L1327 1350H1083L926 458Q897 294 812 227T563 159Q402 159 340 226T307 458L465 1350H221L58 429Q16 192 138 92T534 -9ZM635 1392H756L991 1571H817L635 1392Z" />
<glyph unicode="&#xdb;" horiz-adv-x="1323" d="M534 -9Q808 -9 965 91T1165 429L1327 1350H1083L926 458Q897 294 812 227T563 159Q402 159 340 226T307 458L465 1350H221L58 429Q16 192 138 92T534 -9ZM512 1401H657L821 1533L939 1401H1083L908 1587H751L512 1401Z" />
<glyph unicode="&#xdc;" horiz-adv-x="1323" d="M534 -9Q808 -9 965 91T1165 429L1327 1350H1083L926 458Q897 294 812 227T563 159Q402 159 340 226T307 458L465 1350H221L58 429Q16 192 138 92T534 -9ZM632 1416Q667 1416 694 1442T722 1505Q722 1534 703 1553T655
1572Q620 1572 593 1546T565 1484Q565 1455 583 1436T632 1416ZM967 1416Q1001 1416 1029 1442T1057 1505Q1057 1534 1038 1553T990 1572Q955 1572 927 1546T899 1484Q899 1455 918 1436T967 1416Z" />
<glyph unicode="&#xdd;" horiz-adv-x="1305" d="M501 511H731L1376 1350H1107L641 724H661L414 1350H152L501 511ZM404 0H648L763 652H519L404 0ZM623 1392H744L979 1571H805L623 1392Z" />
<glyph unicode="&#xde;" horiz-adv-x="1173" d="M-36 0H206L246 228H705Q813 228 883 263T994 368T1052 540L1101 819Q1118 916 1101 986T1025 1094T862 1132H406L444 1350H202L-36 0ZM274 387L377 971H742Q798 971 825 949T857 885T853 787L815 575Q805 517 785
475T730 410T640 387H274Z" />
<glyph unicode="&#xdf;" horiz-adv-x="1281" d="M-21 0H221L394 979Q409 1062 439 1123T513 1226T614 1287T739 1307Q854 1307 899 1259T931 1123Q923 1073 899 1032T845 953T791 873T758 781Q752 741 765 707T800 640T844 574T878 498T882 404Q872 341 838 296T744
222T601 180T405 166L376 0Q548 0 682 20T911 86T1063 204T1138 384Q1149 455 1137 507T1100 599T1049 668T1007 726T994 783Q999 818 1023 852T1079 926T1137 1017T1176 1138Q1188 1209 1170 1269T1103 1375T969 1446T764 1471Q631 1471 527 1438T346 1339T220
1180T149 966L-21 0Z" />
<glyph unicode="&#xe0;" horiz-adv-x="1226" d="M385 -12Q470 -12 541 3T666 41T757 92T808 146L803 0H1005L1137 749Q1166 915 1120 1012T965 1153T695 1196Q591 1196 500 1177T335 1116T207 1008T121 847L347 782Q376 873 423 927T532 1007T669 1032Q750 1032
808 1005T892 919T897 761L886 700H502Q438 700 375 692T255 661T150 600T69 499T22 349Q7 258 19 194T65 90T148 28T258 -3T385 -12ZM465 143Q420 143 380 151T310 183T269 247T268 355Q279 421 304 462T366 526T445 556T535 564H867L813 292Q799 262 766 235T687
187T584 155T465 143ZM759 1238H874L755 1417H587L759 1238Z" />
<glyph unicode="&#xe1;" horiz-adv-x="1226" d="M385 -12Q470 -12 541 3T666 41T757 92T808 146L803 0H1005L1137 749Q1166 915 1120 1012T965 1153T695 1196Q591 1196 500 1177T335 1116T207 1008T121 847L347 782Q376 873 423 927T532 1007T669 1032Q750 1032
808 1005T892 919T897 761L886 700H502Q438 700 375 692T255 661T150 600T69 499T22 349Q7 258 19 194T65 90T148 28T258 -3T385 -12ZM465 143Q420 143 380 151T310 183T269 247T268 355Q279 421 304 462T366 526T445 556T535 564H867L813 292Q799 262 766 235T687
187T584 155T465 143ZM551 1228H672L907 1407H733L551 1228Z" />
<glyph unicode="&#xe2;" horiz-adv-x="1226" d="M385 -12Q470 -12 541 3T666 41T757 92T808 146L803 0H1005L1137 749Q1166 915 1120 1012T965 1153T695 1196Q591 1196 500 1177T335 1116T207 1008T121 847L347 782Q376 873 423 927T532 1007T669 1032Q750 1032
808 1005T892 919T897 761L886 700H502Q438 700 375 692T255 661T150 600T69 499T22 349Q7 258 19 194T65 90T148 28T258 -3T385 -12ZM465 143Q420 143 380 151T310 183T269 247T268 355Q279 421 304 462T366 526T445 556T535 564H867L813 292Q799 262 766 235T687
187T584 155T465 143ZM429 1237H574L738 1369L856 1237H1000L825 1423H668L429 1237Z" />
<glyph unicode="&#xe3;" horiz-adv-x="1226" d="M385 -12Q470 -12 541 3T666 41T757 92T808 146L803 0H1005L1137 749Q1166 915 1120 1012T965 1153T695 1196Q591 1196 500 1177T335 1116T207 1008T121 847L347 782Q376 873 423 927T532 1007T669 1032Q750 1032
808 1005T892 919T897 761L886 700H502Q438 700 375 692T255 661T150 600T69 499T22 349Q7 258 19 194T65 90T148 28T258 -3T385 -12ZM465 143Q420 143 380 151T310 183T269 247T268 355Q279 421 304 462T366 526T445 556T535 564H867L813 292Q799 262 766 235T687
187T584 155T465 143ZM834 1261Q880 1261 913 1272T971 1303T1010 1345T1033 1387T1045 1422H925Q922 1410 911 1395T882 1369T838 1358Q807 1358 787 1369T747 1395T704 1421T639 1432Q594 1432 560 1420T501 1390T461 1350T437 1308T424 1272H545Q548 1285 558
1299T588 1324T634 1335Q661 1335 680 1324T719 1298T766 1272T834 1261Z" />
<glyph unicode="&#xe4;" horiz-adv-x="1226" d="M385 -12Q470 -12 541 3T666 41T757 92T808 146L803 0H1005L1137 749Q1166 915 1120 1012T965 1153T695 1196Q591 1196 500 1177T335 1116T207 1008T121 847L347 782Q376 873 423 927T532 1007T669 1032Q750 1032
808 1005T892 919T897 761L886 700H502Q438 700 375 692T255 661T150 600T69 499T22 349Q7 258 19 194T65 90T148 28T258 -3T385 -12ZM465 143Q420 143 380 151T310 183T269 247T268 355Q279 421 304 462T366 526T445 556T535 564H867L813 292Q799 262 766 235T687
187T584 155T465 143ZM549 1252Q584 1252 611 1278T639 1341Q639 1370 620 1389T572 1408Q537 1408 510 1382T482 1320Q482 1291 500 1272T549 1252ZM884 1252Q918 1252 946 1278T974 1341Q974 1370 955 1389T907 1408Q872 1408 844 1382T816 1320Q816 1291 835
1272T884 1252Z" />
<glyph unicode="&#xe5;" horiz-adv-x="1226" d="M385 -12Q470 -12 541 3T666 41T757 92T808 146L803 0H1005L1137 749Q1166 915 1120 1012T965 1153T695 1196Q591 1196 500 1177T335 1116T207 1008T121 847L347 782Q376 873 423 927T532 1007T669 1032Q750 1032
808 1005T892 919T897 761L886 700H502Q438 700 375 692T255 661T150 600T69 499T22 349Q7 258 19 194T65 90T148 28T258 -3T385 -12ZM465 143Q420 143 380 151T310 183T269 247T268 355Q279 421 304 462T366 526T445 556T535 564H867L813 292Q799 262 766 235T687
187T584 155T465 143ZM717 1224Q755 1224 788 1242T843 1291T870 1360Q879 1417 846 1456T755 1495Q716 1495 684 1477T629 1429T601 1360Q593 1302 626 1263T717 1224ZM729 1313Q711 1313 700 1326T691 1360Q694 1380 709 1392T742 1405Q761 1405 772 1393T780
1360Q778 1340 763 1327T729 1313Z" />
<glyph unicode="&#xe6;" horiz-adv-x="2021" d="M1021 280L1098 718Q1137 941 1050 1068T699 1195Q428 1195 307 1089T127 817L348 752Q392 908 470 973T674 1039Q797 1039 851 965T878 733L805 316L835 290L1021 280ZM381 -12Q619 -12 763 73T950 356L825 426Q795
259 704 198T472 137Q336 137 296 188T268 322Q284 430 348 471T561 513Q679 513 852 513L876 653Q660 653 507 653Q293 653 171 583T17 323Q-9 157 82 73T381 -12ZM1291 -11L1319 147Q1175 147 1112 248T1088 594Q1131 851 1233 944T1473 1038Q1613 1038 1676
949T1701 646L1716 670H1077L1051 522H1914Q1925 555 1932 597Q1983 889 1889 1042T1501 1196Q1215 1196 1060 1044T854 594Q807 311 902 150T1291 -11ZM1319 147L1291 -11Q1450 -11 1556 27T1741 146T1861 348L1654 407Q1623 327 1578 264T1468 174T1319 147Z"
/>
<glyph unicode="&#xe7;" horiz-adv-x="1181" d="M494 -11Q756 -11 886 121T1053 390L850 466Q823 336 735 247T519 157Q394 157 336 254T302 564Q329 832 430 929T671 1027Q799 1027 854 944T894 715L1123 788Q1132 940 1046 1068T696 1196Q397 1196 240 1037T56
553Q32 292 120 141T494 -11ZM453 -314Q503 -314 552 -304T642 -274T710 -225T745 -157Q754 -104 722 -79T630 -53Q584 -53 542 -66T477 -98L466 -143Q483 -133 507 -126T553 -119Q577 -119 590 -127T600 -154Q595 -179 563 -194T473 -209Q436 -209 405 -204T352
-193L299 -296Q335 -304 374 -309T453 -314ZM466 -143L541 0H440L378 -131L466 -143Z" />
<glyph unicode="&#xe8;" horiz-adv-x="1236" d="M506 -11L534 147Q390 147 326 248T303 594Q346 851 448 944T688 1038Q828 1038 890 949T915 646L931 670H292L266 522H1129Q1140 555 1147 597Q1198 889 1104 1042T716 1196Q430 1196 275 1044T69 594Q22 311 117
150T506 -11ZM534 147L506 -11Q665 -11 771 27T956 146T1076 348L869 407Q837 327 793 264T683 174T534 147ZM770 1238H885L766 1417H598L770 1238Z" />
<glyph unicode="&#xe9;" horiz-adv-x="1236" d="M506 -11L534 147Q390 147 326 248T303 594Q346 851 448 944T688 1038Q828 1038 890 949T915 646L931 670H292L266 522H1129Q1140 555 1147 597Q1198 889 1104 1042T716 1196Q430 1196 275 1044T69 594Q22 311 117
150T506 -11ZM534 147L506 -11Q665 -11 771 27T956 146T1076 348L869 407Q837 327 793 264T683 174T534 147ZM561 1228H682L917 1407H743L561 1228Z" />
<glyph unicode="&#xea;" horiz-adv-x="1236" d="M506 -11L534 147Q390 147 326 248T303 594Q346 851 448 944T688 1038Q828 1038 890 949T915 646L931 670H292L266 522H1129Q1140 555 1147 597Q1198 889 1104 1042T716 1196Q430 1196 275 1044T69 594Q22 311 117
150T506 -11ZM534 147L506 -11Q665 -11 771 27T956 146T1076 348L869 407Q837 327 793 264T683 174T534 147ZM439 1237H584L748 1369L866 1237H1010L835 1423H678L439 1237Z" />
<glyph unicode="&#xeb;" horiz-adv-x="1236" d="M506 -11L534 147Q390 147 326 248T303 594Q346 851 448 944T688 1038Q828 1038 890 949T915 646L931 670H292L266 522H1129Q1140 555 1147 597Q1198 889 1104 1042T716 1196Q430 1196 275 1044T69 594Q22 311 117
150T506 -11ZM534 147L506 -11Q665 -11 771 27T956 146T1076 348L869 407Q837 327 793 264T683 174T534 147ZM559 1252Q594 1252 621 1278T649 1341Q649 1370 630 1389T582 1408Q547 1408 520 1382T492 1320Q492 1291 510 1272T559 1252ZM894 1252Q928 1252 956
1278T984 1341Q984 1370 965 1389T917 1408Q882 1408 854 1382T826 1320Q826 1291 845 1272T894 1252Z" />
<glyph unicode="&#xec;" horiz-adv-x="482" d="M-6 0H237L446 1185H203L-6 0ZM635 1238H750L631 1417H463L635 1238Z" />
<glyph unicode="&#xed;" horiz-adv-x="482" d="M-6 0H237L446 1185H203L-6 0ZM428 1228H549L784 1407H610L428 1228Z" />
<glyph unicode="&#xee;" horiz-adv-x="482" d="M-6 0H237L446 1185H203L-6 0ZM49 1237H194L358 1369L476 1237H620L445 1423H288L49 1237Z" />
<glyph unicode="&#xef;" horiz-adv-x="482" d="M-6 0H237L446 1185H203L-6 0ZM169 1252Q204 1252 231 1278T259 1341Q259 1370 240 1389T192 1408Q157 1408 130 1382T102 1320Q102 1291 120 1272T169 1252ZM504 1252Q538 1252 566 1278T594 1341Q594 1370 575
1389T527 1408Q492 1408 464 1382T436 1320Q436 1291 455 1272T504 1252Z" />
<glyph unicode="&#xf0;" horiz-adv-x="1237" d="M495 -9Q790 -9 933 147T1127 596Q1173 857 1064 1025T690 1194Q395 1194 253 1038T68 593Q25 306 113 149T495 -9ZM521 159Q380 159 326 256T310 593Q350 834 442 932T675 1031Q816 1031 872 933T885 593Q842 352
753 256T521 159ZM1143 684Q1158 766 1158 848T1142 1005T1089 1135Q1072 1247 1027 1326T909 1456T737 1532T510 1564L436 1421Q556 1418 651 1399T813 1336T918 1220T962 1038T942 775L1143 684ZM683 1290L882 1579L757 1605L554 1315L683 1290Z" />
<glyph unicode="&#xf1;" horiz-adv-x="1206" d="M-17 0H224L395 969L381 1186H193L-17 0ZM734 0H975L1092 665Q1135 910 1073 1053T797 1196Q580 1196 421 1060T235 776L341 709Q365 848 463 938T680 1028Q798 1028 842 947T851 662L734 0ZM839 1274Q885 1274
918 1285T976 1316T1015 1358T1038 1400T1050 1435H930Q927 1423 916 1408T887 1382T843 1371Q812 1371 792 1382T752 1408T709 1434T644 1445Q599 1445 565 1433T506 1403T466 1363T442 1321T429 1285H550Q553 1298 563 1312T593 1337T639 1348Q666 1348 685 1337T724
1311T771 1285T839 1274Z" />
<glyph unicode="&#xf2;" horiz-adv-x="1242" d="M499 -9Q782 -9 942 141T1148 597Q1195 898 1093 1048T707 1198Q424 1198 264 1050T58 597Q12 294 114 143T499 -9ZM526 156Q394 156 327 248T299 596Q339 849 443 940T680 1032Q812 1032 879 941T906 596Q866 341
762 249T526 156ZM759 1238H874L755 1417H587L759 1238Z" />
<glyph unicode="&#xf3;" horiz-adv-x="1242" d="M499 -9Q782 -9 942 141T1148 597Q1195 898 1093 1048T707 1198Q424 1198 264 1050T58 597Q12 294 114 143T499 -9ZM526 156Q394 156 327 248T299 596Q339 849 443 940T680 1032Q812 1032 879 941T906 596Q866 341
762 249T526 156ZM551 1228H672L907 1407H733L551 1228Z" />
<glyph unicode="&#xf4;" horiz-adv-x="1242" d="M499 -9Q782 -9 942 141T1148 597Q1195 898 1093 1048T707 1198Q424 1198 264 1050T58 597Q12 294 114 143T499 -9ZM526 156Q394 156 327 248T299 596Q339 849 443 940T680 1032Q812 1032 879 941T906 596Q866 341
762 249T526 156ZM429 1237H574L738 1369L856 1237H1000L825 1423H668L429 1237Z" />
<glyph unicode="&#xf5;" horiz-adv-x="1242" d="M499 -9Q782 -9 942 141T1148 597Q1195 898 1093 1048T707 1198Q424 1198 264 1050T58 597Q12 294 114 143T499 -9ZM526 156Q394 156 327 248T299 596Q339 849 443 940T680 1032Q812 1032 879 941T906 596Q866 341
762 249T526 156ZM835 1261Q881 1261 914 1272T972 1303T1011 1345T1034 1387T1046 1422H926Q923 1410 912 1395T883 1369T839 1358Q808 1358 788 1369T748 1395T705 1421T640 1432Q595 1432 561 1420T502 1390T462 1350T438 1308T425 1272H546Q549 1285 559 1299T589
1324T635 1335Q662 1335 681 1324T720 1298T767 1272T835 1261Z" />
<glyph unicode="&#xf6;" horiz-adv-x="1242" d="M499 -9Q782 -9 942 141T1148 597Q1195 898 1093 1048T707 1198Q424 1198 264 1050T58 597Q12 294 114 143T499 -9ZM526 156Q394 156 327 248T299 596Q339 849 443 940T680 1032Q812 1032 879 941T906 596Q866 341
762 249T526 156ZM549 1252Q584 1252 611 1278T639 1341Q639 1370 620 1389T572 1408Q537 1408 510 1382T482 1320Q482 1291 500 1272T549 1252ZM884 1252Q918 1252 946 1278T974 1341Q974 1370 955 1389T907 1408Q872 1408 844 1382T816 1320Q816 1291 835 1272T884
1252Z" />
<glyph unicode="&#xf7;" horiz-adv-x="505" d="M9 405H437L464 551H35L9 405ZM176 56Q208 56 232 76T261 128Q270 170 247 200T185 230Q151 230 126 211T95 162Q88 117 110 87T176 56ZM295 729Q327 729 351 749T381 801Q389 843 367 872T304 902Q270 902 245 883T214
835Q206 790 229 760T295 729Z" />
<glyph unicode="&#xf8;" horiz-adv-x="1238" d="M-98 7L-30 -57L1298 1188L1226 1247L-98 7ZM499 -9Q782 -9 942 141T1148 597Q1195 898 1093 1048T707 1198Q424 1198 264 1050T58 597Q12 294 114 143T499 -9ZM526 156Q394 156 327 248T299 596Q339 849 443 940T680
1032Q812 1032 879 941T906 596Q866 341 762 249T526 156Z" />
<glyph unicode="&#xf9;" horiz-adv-x="1208" d="M788 0H975L1183 1185H942L770 205L788 0ZM426 1186H184L66 514Q23 269 84 130T360 -10Q589 -10 743 126T925 410L818 472Q794 333 694 246T475 158Q357 158 315 239T309 524L426 1186ZM748 1238H863L744 1417H576L748
1238Z" />
<glyph unicode="&#xfa;" horiz-adv-x="1208" d="M788 0H975L1183 1185H942L770 205L788 0ZM426 1186H184L66 514Q23 269 84 130T360 -10Q589 -10 743 126T925 410L818 472Q794 333 694 246T475 158Q357 158 315 239T309 524L426 1186ZM540 1228H661L896 1407H722L540
1228Z" />
<glyph unicode="&#xfb;" horiz-adv-x="1208" d="M788 0H975L1183 1185H942L770 205L788 0ZM426 1186H184L66 514Q23 269 84 130T360 -10Q589 -10 743 126T925 410L818 472Q794 333 694 246T475 158Q357 158 315 239T309 524L426 1186ZM418 1237H563L727 1369L845
1237H989L814 1423H657L418 1237Z" />
<glyph unicode="&#xfc;" horiz-adv-x="1208" d="M788 0H975L1183 1185H942L770 205L788 0ZM426 1186H184L66 514Q23 269 84 130T360 -10Q589 -10 743 126T925 410L818 472Q794 333 694 246T475 158Q357 158 315 239T309 524L426 1186ZM538 1252Q573 1252 600 1278T628
1341Q628 1370 609 1389T561 1408Q526 1408 499 1382T471 1320Q471 1291 489 1272T538 1252ZM873 1252Q907 1252 935 1278T963 1341Q963 1370 944 1389T896 1408Q861 1408 833 1382T805 1320Q805 1291 824 1272T873 1252Z" />
<glyph unicode="&#xfd;" horiz-adv-x="1112" d="M267 0H635L1183 1185H930L441 98L493 99L384 1186L131 1185L267 0ZM-100 -463Q153 -463 329 -372T635 0L411 2Q326 -180 218 -239T-70 -298L-100 -463ZM501 1228H622L857 1407H683L501 1228Z" />
<glyph unicode="&#xfe;" horiz-adv-x="1239" d="M-88 -400H153L383 894H143L-88 -400ZM-11 0H209L262 181L507 1570H265L-11 0ZM607 -8Q829 -8 965 148T1146 600Q1190 887 1115 1041T817 1196Q618 1196 460 1098T282 890L366 772Q384 873 485 950T707 1028Q835
1028 889 936T902 596Q859 344 770 252T554 159Q432 159 359 236T303 416L177 297Q157 187 282 90T607 -8Z" />
<glyph unicode="&#xff;" horiz-adv-x="1112" d="M267 0H635L1183 1185H930L441 98L493 99L384 1186L131 1185L267 0ZM-100 -463Q153 -463 329 -372T635 0L411 2Q326 -180 218 -239T-70 -298L-100 -463ZM499 1252Q534 1252 561 1278T589 1341Q589 1370 570 1389T522
1408Q487 1408 460 1382T432 1320Q432 1291 450 1272T499 1252ZM834 1252Q868 1252 896 1278T924 1341Q924 1370 905 1389T857 1408Q822 1408 794 1382T766 1320Q766 1291 785 1272T834 1252Z" />
<glyph unicode="&#x2013;" horiz-adv-x="964" d="M11 397H830L860 559H40L11 397Z" />
<glyph unicode="&#x2014;" horiz-adv-x="1154" d="M11 397H1020L1050 559H40L11 397Z" />
<glyph unicode="&#x2018;" horiz-adv-x="338" d="M114 896H293L336 1140L311 1101L423 1350H261L155 1123L114 896Z" />
<glyph unicode="&#x2019;" horiz-adv-x="338" d="M403 1350H224L181 1106L206 1145L95 896H257L363 1122L403 1350Z" />
<glyph unicode="&#x201a;" horiz-adv-x="284" d="M-104 -403H72L148 30H-28L-104 -403Z" />
<glyph unicode="&#x201c;" horiz-adv-x="563" d="M362 896H541L584 1140L559 1101L671 1350H509L403 1123L362 896ZM361 896H540L583 1140L558 1101L670 1350H508L402 1123L361 896Z" />
<glyph unicode="&#x201d;" horiz-adv-x="563" d="M386 1350H207L164 1106L189 1145L78 896H240L345 1122L386 1350ZM644 1350H464L421 1106L446 1145L335 896H497L603 1122L644 1350Z" />
<glyph unicode="&#x201e;" horiz-adv-x="536" d="M5 -423H151L230 30H84L5 -423ZM4 -423H145L225 30H83L4 -423Z" />
<glyph unicode="&#x2022;" horiz-adv-x="488" d="M245 495Q287 495 327 516T395 572T431 647Q440 697 422 739T368 807T283 833Q240 833 200 812T131 756T96 681Q87 632 105 590T159 521T245 495Z" />
<glyph unicode="&#x2039;" horiz-adv-x="769" d="M364 80H608L258 494L757 908H506L13 494L364 80Z" />
<glyph unicode="&#x203a;" horiz-adv-x="771" d="M-42 82H208L702 496L352 910H107L457 496L-42 82Z" />
</font>
</defs>
</svg>
